<svg xmlns="http://www.w3.org/2000/svg" viewBox="0 0 256 256">
  <defs>
    <linearGradient id="logoGrad" x1="0" y1="0" x2="1" y2="1">
      <stop offset="0%" stop-color="#A855F7" />
      <stop offset="100%" stop-color="#7C3AED" />
    </linearGradient>
    <linearGradient id="bookGrad" x1="0" y1="0" x2="1" y2="1">
      <stop offset="0%" stop-color="#F5F3FF" />
      <stop offset="100%" stop-color="#DDD6FE" />
    </linearGradient>
  </defs>
  <rect width="256" height="256" fill="transparent" />
  <path d="M76 156c32 18 52 18 80 0 28 18 48 18 80 0v44H76v-44Z" fill="url(#bookGrad)" />
  <path d="M76 156s32-20 52-20 52 20 52 20" fill="none" stroke="#C4B5FD" stroke-width="12" stroke-linecap="round" />
  <path d="M76 156s32 8 52 8 52-8 52-8" fill="none" stroke="#C4B5FD" stroke-width="8" stroke-linecap="round" />
  <circle cx="128" cy="92" r="56" fill="url(#logoGrad)" opacity="0.95" />
  <path d="M86 92c0-32 12-52 42-52" fill="none" stroke="#EDE9FE" stroke-width="10" />
  <path d="M170 92c0-32-12-52-42-52" fill="none" stroke="#EDE9FE" stroke-width="10" />
  <path d="M85 86h86" stroke="#EDE9FE" stroke-width="8" stroke-linecap="round" />
  <path d="M104 104h48" stroke="#EDE9FE" stroke-width="6" stroke-linecap="round" />
  <path d="M124 68c16 0 16 24 0 24s-16-24 0-24Z" fill="#F8FAFF" />
  <path d="M90 44l76 0 10 16-96 0 10-16Z" fill="#1E1B4B" />
  <path d="M90 44l76 0 10 16-96 0 10-16Z" fill="url(#logoGrad)" opacity="0.95" />
  <path d="M98 60h60" stroke="#F8FAFF" stroke-width="8" stroke-linecap="round" />
  <path d="M76 70c-28 14-40 56-40 72" fill="none" stroke="#A855F7" stroke-width="12" stroke-linecap="round" />
  <path d="M180 70c28 14 40 56 40 72" fill="none" stroke="#A855F7" stroke-width="12" stroke-linecap="round" />
  <path d="M68 28c16 18 28 20 40 20" fill="none" stroke="#A855F7" stroke-width="12" stroke-linecap="round" />
  <path d="M188 28c-16 18-28 20-40 20" fill="none" stroke="#A855F7" stroke-width="12" stroke-linecap="round" />
</svg>